<?xml version="1.0"?>
<svg xmlns="http://www.w3.org/2000/svg" id="Layer_1" height="512" viewBox="0 0 512 512" width="512" data-name="Layer 1" class=""><g><path d="m256 17.68c112.43 0 203.93 87.31 203.93 194.96 0 151.31-203.93 281.68-203.93 281.68s-203.93-130.37-203.93-281.68c0-107.65 91.5-194.96 203.93-194.96zm148.89 200.33a148.89 148.89 0 1 0 -148.89 148.9 148.89 148.89 0 0 0 148.89-148.9z" fill="#f4b844" data-original="#F4B844" class="" style="fill:#132545" data-old_color="#f4b844"/><path d="m256 69.12a148.9 148.9 0 1 1 -148.89 148.89 148.89 148.89 0 0 1 148.89-148.89zm88.24 107.02c0-11.29-7.39-20.45-16.5-20.45s-16.5 9.16-16.5 20.45 7.39 20.44 16.5 20.44 16.5-9.15 16.5-20.44zm-29.06 68.87c0-37.44-26.49-67.8-59.18-67.8s-59.18 30.36-59.18 67.8 26.49 67.79 59.18 67.79 59.18-30.35 59.18-67.79zm-12.81-102.35c0-12.96-8.48-23.46-18.93-23.46s-18.93 10.5-18.93 23.46 8.47 23.46 18.93 23.46 18.93-10.51 18.93-23.46zm-54.88 0c0-12.96-8.47-23.46-18.93-23.46s-18.93 10.5-18.93 23.46 8.48 23.46 18.93 23.46 18.93-10.51 18.93-23.46zm-46.73 33.48c0-11.29-7.39-20.45-16.5-20.45s-16.5 9.16-16.5 20.45 7.39 20.44 16.5 20.44 16.5-9.15 16.5-20.44z" fill="#00acea" data-original="#00ACEA" class="" style="fill:#9C1F44" data-old_color="#00acea"/><path d="m327.74 155.69c9.11 0 16.5 9.16 16.5 20.45s-7.39 20.44-16.5 20.44-16.5-9.15-16.5-20.44 7.39-20.45 16.5-20.45z" fill="#00efd1" data-original="#00EFD1" class="active-path" style="fill:#FFFFFF" data-old_color="#00efd1"/><path d="m256 177.21c32.69 0 59.18 30.36 59.18 67.8s-26.49 67.79-59.18 67.79-59.18-30.35-59.18-67.79 26.49-67.8 59.18-67.8z" fill="#00efd1" data-original="#00EFD1" class="active-path" style="fill:#FFFFFF" data-old_color="#00efd1"/><ellipse cx="283.44" cy="142.66" fill="#00efd1" rx="18.93" ry="23.46" data-original="#00EFD1" class="active-path" style="fill:#FFFFFF" data-old_color="#00efd1"/><ellipse cx="228.56" cy="142.66" fill="#00efd1" rx="18.93" ry="23.46" data-original="#00EFD1" class="active-path" style="fill:#FFFFFF" data-old_color="#00efd1"/><path d="m184.26 155.69c9.11 0 16.5 9.16 16.5 20.45s-7.39 20.44-16.5 20.44-16.5-9.15-16.5-20.44 7.39-20.45 16.5-20.45z" fill="#00efd1" data-original="#00EFD1" class="active-path" style="fill:#FFFFFF" data-old_color="#00efd1"/><g fill="#083863"><path d="m256 11.68c-115.756 0-209.93 90.151-209.93 200.96 0 35.569 10.986 72.855 32.653 110.82 17.174 30.094 41.078 60.705 71.048 90.982 50.864 51.387 102.482 84.6 103 84.933a6 6 0 0 0 6.464 0c.515-.33 52.133-33.546 103-84.933 29.97-30.277 53.874-60.888 71.048-90.982 21.667-37.965 32.653-75.251 32.653-110.82-.006-110.809-94.18-200.96-209.936-200.96zm166.916 305.72c-16.627 29.162-39.859 58.914-69.05 88.428a677.78 677.78 0 0 1 -97.866 81.3 677.78 677.78 0 0 1 -97.866-81.295c-29.191-29.514-52.423-59.266-69.05-88.428-20.579-36.093-31.014-71.341-31.014-104.765 0-104.193 88.791-188.96 197.93-188.96s197.93 84.767 197.93 188.96c0 33.424-10.43 68.672-31.014 104.76z" data-original="#083863" class="" style="fill:#06062A" data-old_color="#083863"/><path d="m256 63.12c-85.407 0-154.89 69.484-154.89 154.89s69.483 154.9 154.89 154.9 154.89-69.488 154.89-154.9-69.483-154.89-154.89-154.89zm0 297.79c-78.79 0-142.89-64.105-142.89-142.9s64.1-142.89 142.89-142.89 142.89 64.1 142.89 142.89-64.1 142.9-142.89 142.9z" data-original="#083863" class="" style="fill:#06062A" data-old_color="#083863"/><path d="m256 171.21c-35.94 0-65.18 33.106-65.18 73.8s29.24 73.79 65.18 73.79 65.18-33.1 65.18-73.79-29.24-73.8-65.18-73.8zm0 135.59c-29.324 0-53.18-27.719-53.18-61.79s23.856-61.8 53.18-61.8 53.18 27.723 53.18 61.8-23.856 61.79-53.18 61.79z" data-original="#083863" class="" style="fill:#06062A" data-old_color="#083863"/><path d="m283.44 172.12c13.746 0 24.93-13.216 24.93-29.46s-11.184-29.46-24.93-29.46-24.93 13.216-24.93 29.46 11.183 29.46 24.93 29.46zm-8.718-42.282c2.413-2.991 5.509-4.638 8.718-4.638 7.009 0 12.93 8 12.93 17.46s-5.921 17.46-12.93 17.46-12.93-8-12.93-17.46a20.4 20.4 0 0 1 4.212-12.822z" data-original="#083863" class="" style="fill:#06062A" data-old_color="#083863"/><path d="m327.74 149.69c-12.407 0-22.5 11.866-22.5 26.45s10.093 26.44 22.5 26.44 22.5-11.861 22.5-26.44-10.094-26.45-22.5-26.45zm0 40.89c-5.692 0-10.5-6.613-10.5-14.44s4.808-14.45 10.5-14.45 10.5 6.617 10.5 14.45-4.808 14.44-10.5 14.44z" data-original="#083863" class="" style="fill:#06062A" data-old_color="#083863"/><path d="m228.56 172.12c13.747 0 24.93-13.216 24.93-29.46s-11.183-29.46-24.93-29.46-24.93 13.216-24.93 29.46 11.184 29.46 24.93 29.46zm0-46.92c3.209 0 6.305 1.647 8.718 4.638a20.4 20.4 0 0 1 4.212 12.822c0 9.465-5.921 17.46-12.93 17.46s-12.93-8-12.93-17.46 5.921-17.46 12.93-17.46z" data-original="#083863" class="" style="fill:#06062A" data-old_color="#083863"/><path d="m206.76 176.14c0-14.584-10.093-26.45-22.5-26.45s-22.5 11.866-22.5 26.45 10.094 26.44 22.5 26.44 22.5-11.861 22.5-26.44zm-22.5 14.44c-5.692 0-10.5-6.613-10.5-14.44s4.808-14.45 10.5-14.45 10.5 6.617 10.5 14.45-4.808 14.44-10.5 14.44z" data-original="#083863" class="" style="fill:#06062A" data-old_color="#083863"/></g></g> </svg>
