<svg id="Layer_2" data-name="Layer 2" xmlns="http://www.w3.org/2000/svg" xmlns:xlink="http://www.w3.org/1999/xlink" viewBox="0 0 906.2 182.5"><defs><style>.cls-1{fill:url(#linear-gradient);}</style><linearGradient id="linear-gradient" x1="24.08" y1="115.31" x2="930.25" y2="115.31" gradientUnits="userSpaceOnUse"><stop offset="0" stop-color="#fd5b0a"/><stop offset="0.1" stop-color="#fa5913"/><stop offset="0.27" stop-color="#f4532d"/><stop offset="0.49" stop-color="#e94a56"/><stop offset="0.74" stop-color="#d93e90"/><stop offset="0.99" stop-color="#c830d1"/></linearGradient></defs><path class="cls-1" d="M103.8,24.1a76.3,76.3,0,0,1,39.2,11V62q-19.6-16.5-40.8-16.5c-15.5,0-28.5,5.6-39.2,16.7S47,86.8,47,102.9s5.4,29.1,16,40,23.8,16.3,39.3,16.3q12,0,20.4-3.9a58.7,58.7,0,0,0,9.7-5.3,109.2,109.2,0,0,0,10.6-8v27.5a82.7,82.7,0,0,1-41,11q-32.2,0-55.2-22.6T24.1,103.1c0-19.2,6.3-36.4,19-51.4C58.7,33.3,79,24.1,103.8,24.1Zm60.1,9.8a14.3,14.3,0,0,0-14.3,14.2,13.7,13.7,0,0,0,4.2,10.2A13.9,13.9,0,0,0,164,62.5a13.4,13.4,0,0,0,10-4.2,13.5,13.5,0,0,0,4.2-10.1A13.7,13.7,0,0,0,174,38.1,13.8,13.8,0,0,0,163.9,33.9Zm-11,143.9h22V82.6h-22ZM228.2,80c-9.6,0-18.3,3.8-26,11.4V82.6H180.1v95.2h22.1V131.9q0-17.9,4.5-24.9c3.1-4.9,8.2-7.3,15.5-7.3s11.4,1.9,13.9,5.5,3.9,10.1,3.9,19.4v53.2h22.1V119.5c0-13.4-2.7-23.1-8-29S239.3,80,228.2,80Zm112,62.5,18.5,10.4a79.1,79.1,0,0,1-9.1,12.5,47.6,47.6,0,0,1-10.2,8.6,39.3,39.3,0,0,1-11.8,4.9,55.6,55.6,0,0,1-13.8,1.6c-14.2,0-25.6-4.6-34.2-13.7s-12.9-21.3-12.9-36.5,4.2-27.2,12.5-36.5S298.7,80,312.6,80s25.1,4.5,33.2,13.4,12.1,21.1,12.1,36.8v5.2H289.7c.6,7.8,3.1,14,7.6,18.6s10.2,6.9,17.3,6.9c5.4,0,10-1.3,13.5-3.9S335.7,149.5,340.2,142.5Zm-49.1-25.1h44.2c-3.1-11.7-10.5-17.6-22.2-17.6a20.4,20.4,0,0,0-7.5,1.3,19,19,0,0,0-6.4,3.5,20,20,0,0,0-4.9,5.5A24.2,24.2,0,0,0,291.1,117.4ZM386.2,27H363.5V177.8h67V156.4H386.2ZM530.3,130.3c0,11.4-3.2,21.4-9.5,29.8l-.2.5c-6,9-41,46-41,46s-35-37-41-46l-.4-.7c-6.2-8.5-9.4-18.6-9.4-30.4a46.9,46.9,0,0,1,14.8-35c9.8-9.7,21.8-14.5,35.9-14.5s26.3,4.9,36.1,14.6S530.3,116.2,530.3,130.3Zm-79-.4c0,9.5,2.5,17,7.6,22.6s12.1,8.4,20.6,8.4,15.5-2.8,20.6-8.3,7.7-13,7.7-22.2-2.5-16.6-7.7-22.2-12.1-8.4-20.6-8.4-15.2,2.8-20.4,8.4S451.3,121.1,451.3,129.9Zm98.2-35.2a48.2,48.2,0,0,0-15.1,35.9c0,14.2,5,26.1,14.9,35.6s22.2,14.3,36.9,14.3c8.9,0,17.8-2.3,26.8-6.9v-29q-7.9,9.5-13.8,12.9a28.7,28.7,0,0,1-14,3.4,27,27,0,0,1-20.4-8.6c-5.3-5.8-7.9-13.1-7.9-22s2.7-16,8.2-21.8a27.1,27.1,0,0,1,20.6-8.7,26.7,26.7,0,0,1,13.8,3.5c4,2.3,8.4,6.5,13.5,12.6V86.7A56.4,56.4,0,0,0,586.4,80Q564.5,80,549.5,94.7ZM689.8,82.6h22v95.2h-22v-10c-9.1,8.5-18.8,12.7-29.2,12.7-13.2,0-24.1-4.8-32.6-14.3s-12.8-21.8-12.8-36.3,4.2-26.1,12.8-35.6A41.2,41.2,0,0,1,660,80c11.1,0,21,4.6,29.8,13.7Zm1.3,47.8c0-8.9-2.5-16.3-7.5-22.1a25,25,0,0,0-19.5-8.5,24.5,24.5,0,0,0-19,8.6c-5,5.8-7.5,13-7.5,21.5s2.5,16.6,7.3,22.3a24.2,24.2,0,0,0,19,8.7c8.1,0,14.7-2.8,19.7-8.4S691.1,139.3,691.1,130.4Zm73.6-47.8H747.6V47.8H725.7V82.6h-9.4v20.6h9.4v74.6h21.9V103.2h17.1Zm84.1,12c9.7,9.7,14.6,21.6,14.6,35.7s-4.9,26.2-14.7,35.8-22.1,14.4-36.5,14.4-26.2-4.9-35.8-14.6-14.5-21.8-14.5-36.4a47.3,47.3,0,0,1,14.8-35c9.8-9.7,21.8-14.5,35.9-14.5S838.9,84.9,848.8,94.6Zm-7.9,35.8c0-9.2-2.5-16.6-7.7-22.2s-12.1-8.4-20.6-8.4-15.2,2.8-20.4,8.4-7.8,12.9-7.8,21.7,2.5,17,7.6,22.6,12.1,8.4,20.6,8.4,15.5-2.8,20.6-8.3S840.9,139.6,840.9,130.4ZM912.1,80a23.3,23.3,0,0,0-11.3,2.5c-3.2,1.5-6.7,4.4-10.8,8.6V82.6H868v95.2h22V128.4c0-18.1,6-27.1,18-27.1,4,0,8,1.5,12.2,4.5l10.1-20.1C923.9,81.9,917.9,80,912.1,80ZM890,188H868v10.1h22Zm-42.1,0H826v10.1h21.9Zm-42.1,0H783.9v10.1h21.9Zm-42.1,0H741.8v10.1h21.9Zm-42.1,0H699.7v10.1h21.9Zm-42.1,0H657.6v10.1h21.9Zm-42.1,0H615.5v10.1h21.9Zm-42,0h-22v10.1h22Zm-42.1,0h-22v10.1h22ZM427,188H405.1v10.1H427Zm-42.1,0H363v10.1h21.9Zm-42.1,0H320.9v10.1h21.9Zm-126.2,0h-22v10.1h22Zm42.1,0h-22v10.1h22Zm42,0H278.8v10.1h21.9Zm-126.2,0H152.6v10.1h21.9Z" transform="translate(-24.1 -24.1)"/><path class="cls-1" d="M103.8,24.1a76.3,76.3,0,0,1,39.2,11V62q-19.6-16.5-40.8-16.5c-15.5,0-28.5,5.6-39.2,16.7S47,86.8,47,102.9s5.4,29.1,16,40,23.8,16.3,39.3,16.3q12,0,20.4-3.9a58.7,58.7,0,0,0,9.7-5.3,109.2,109.2,0,0,0,10.6-8v27.5a82.7,82.7,0,0,1-41,11q-32.2,0-55.2-22.6T24.1,103.1c0-19.2,6.3-36.4,19-51.4C58.7,33.3,79,24.1,103.8,24.1Zm60.1,9.8a14.3,14.3,0,0,0-14.3,14.2,13.7,13.7,0,0,0,4.2,10.2A13.9,13.9,0,0,0,164,62.5a13.4,13.4,0,0,0,10-4.2,13.5,13.5,0,0,0,4.2-10.1A13.7,13.7,0,0,0,174,38.1,13.8,13.8,0,0,0,163.9,33.9Zm-11,143.9h22V82.6h-22ZM228.2,80c-9.6,0-18.3,3.8-26,11.4V82.6H180.1v95.2h22.1V131.9q0-17.9,4.5-24.9c3.1-4.9,8.2-7.3,15.5-7.3s11.4,1.9,13.9,5.5,3.9,10.1,3.9,19.4v53.2h22.1V119.5c0-13.4-2.7-23.1-8-29S239.3,80,228.2,80Zm112,62.5,18.5,10.4a79.1,79.1,0,0,1-9.1,12.5,47.6,47.6,0,0,1-10.2,8.6,39.3,39.3,0,0,1-11.8,4.9,55.6,55.6,0,0,1-13.8,1.6c-14.2,0-25.6-4.6-34.2-13.7s-12.9-21.3-12.9-36.5,4.2-27.2,12.5-36.5S298.7,80,312.6,80s25.1,4.5,33.2,13.4,12.1,21.1,12.1,36.8v5.2H289.7c.6,7.8,3.1,14,7.6,18.6s10.2,6.9,17.3,6.9c5.4,0,10-1.3,13.5-3.9S335.7,149.5,340.2,142.5Zm-49.1-25.1h44.2c-3.1-11.7-10.5-17.6-22.2-17.6a20.4,20.4,0,0,0-7.5,1.3,19,19,0,0,0-6.4,3.5,20,20,0,0,0-4.9,5.5A24.2,24.2,0,0,0,291.1,117.4ZM386.2,27H363.5V177.8h67V156.4H386.2ZM530.3,130.3c0,11.4-3.2,21.4-9.5,29.8l-.2.5c-6,9-41,46-41,46s-35-37-41-46l-.4-.7c-6.2-8.5-9.4-18.6-9.4-30.4a46.9,46.9,0,0,1,14.8-35c9.8-9.7,21.8-14.5,35.9-14.5s26.3,4.9,36.1,14.6S530.3,116.2,530.3,130.3Zm-79-.4c0,9.5,2.5,17,7.6,22.6s12.1,8.4,20.6,8.4,15.5-2.8,20.6-8.3,7.7-13,7.7-22.2-2.5-16.6-7.7-22.2-12.1-8.4-20.6-8.4-15.2,2.8-20.4,8.4S451.3,121.1,451.3,129.9Zm98.2-35.2a48.2,48.2,0,0,0-15.1,35.9c0,14.2,5,26.1,14.9,35.6s22.2,14.3,36.9,14.3c8.9,0,17.8-2.3,26.8-6.9v-29q-7.9,9.5-13.8,12.9a28.7,28.7,0,0,1-14,3.4,27,27,0,0,1-20.4-8.6c-5.3-5.8-7.9-13.1-7.9-22s2.7-16,8.2-21.8a27.1,27.1,0,0,1,20.6-8.7,26.7,26.7,0,0,1,13.8,3.5c4,2.3,8.4,6.5,13.5,12.6V86.7A56.4,56.4,0,0,0,586.4,80Q564.5,80,549.5,94.7ZM689.8,82.6h22v95.2h-22v-10c-9.1,8.5-18.8,12.7-29.2,12.7-13.2,0-24.1-4.8-32.6-14.3s-12.8-21.8-12.8-36.3,4.2-26.1,12.8-35.6A41.2,41.2,0,0,1,660,80c11.1,0,21,4.6,29.8,13.7Zm1.3,47.8c0-8.9-2.5-16.3-7.5-22.1a25,25,0,0,0-19.5-8.5,24.5,24.5,0,0,0-19,8.6c-5,5.8-7.5,13-7.5,21.5s2.5,16.6,7.3,22.3a24.2,24.2,0,0,0,19,8.7c8.1,0,14.7-2.8,19.7-8.4S691.1,139.3,691.1,130.4Zm73.6-47.8H747.6V47.8H725.7V82.6h-9.4v20.6h9.4v74.6h21.9V103.2h17.1Zm84.1,12c9.7,9.7,14.6,21.6,14.6,35.7s-4.9,26.2-14.7,35.8-22.1,14.4-36.5,14.4-26.2-4.9-35.8-14.6-14.5-21.8-14.5-36.4a47.3,47.3,0,0,1,14.8-35c9.8-9.7,21.8-14.5,35.9-14.5S838.9,84.9,848.8,94.6Zm-7.9,35.8c0-9.2-2.5-16.6-7.7-22.2s-12.1-8.4-20.6-8.4-15.2,2.8-20.4,8.4-7.8,12.9-7.8,21.7,2.5,17,7.6,22.6,12.1,8.4,20.6,8.4,15.5-2.8,20.6-8.3S840.9,139.6,840.9,130.4ZM912.1,80a23.3,23.3,0,0,0-11.3,2.5c-3.2,1.5-6.7,4.4-10.8,8.6V82.6H868v95.2h22V128.4c0-18.1,6-27.1,18-27.1,4,0,8,1.5,12.2,4.5l10.1-20.1C923.9,81.9,917.9,80,912.1,80ZM890,188H868v10.1h22Zm-42.1,0H826v10.1h21.9Zm-42.1,0H783.9v10.1h21.9Zm-42.1,0H741.8v10.1h21.9Zm-42.1,0H699.7v10.1h21.9Zm-42.1,0H657.6v10.1h21.9Zm-42.1,0H615.5v10.1h21.9Zm-42,0h-22v10.1h22Zm-42.1,0h-22v10.1h22ZM427,188H405.1v10.1H427Zm-42.1,0H363v10.1h21.9Zm-42.1,0H320.9v10.1h21.9Zm-126.2,0h-22v10.1h22Zm42.1,0h-22v10.1h22Zm42,0H278.8v10.1h21.9Zm-126.2,0H152.6v10.1h21.9Z" transform="translate(-24.1 -24.1)"/></svg>