<svg data-v-423bf9ae="" xmlns="http://www.w3.org/2000/svg" viewBox="0 0 368 90" class="iconLeft"><!----><!----><!----><g data-v-423bf9ae="" id="ad2cb28c-4bd1-475b-9303-d669597a23e6" fill="#FFFFFF" transform="matrix(4.918032863773798,0,0,4.918032863773798,105.47783780432755,0.4918035326129484)"><path d="M7.62 12.78L7.62 12.78L7.62 12.78Q7.63 12.78 7.63 12.79L7.63 12.79L7.63 12.79Q7.63 12.80 7.62 12.80L7.62 12.80L7.05 12.80L7.05 12.80Q6.65 12.80 6.36 12.70L6.36 12.70L6.36 12.70Q6.06 12.60 5.86 12.43L5.86 12.43L5.86 12.43Q5.65 12.27 5.53 12.07L5.53 12.07L5.53 12.07Q5.41 11.87 5.35 11.67L5.35 11.67L4.56 9.02L1.71 9.02L0.60 12.46L0.60 12.46Q0.53 12.67 0.44 12.74L0.44 12.74L0.44 12.74Q0.36 12.80 0.16 12.80L0.16 12.80L-0.16 12.80L-0.16 12.80Q-0.17 12.80-0.17 12.79L-0.17 12.79L-0.17 12.79Q-0.17 12.78-0.16 12.78L-0.16 12.78L-0.16 12.78Q0.02 12.78 0.10 12.66L0.10 12.66L0.10 12.66Q0.17 12.54 0.23 12.37L0.23 12.37L2.97 3.77L2.97 3.77Q3.06 3.48 3.24 3.31L3.24 3.31L3.24 3.31Q3.41 3.14 3.60 3.06L3.60 3.06L3.60 3.06Q3.78 2.98 3.94 2.96L3.94 2.96L3.94 2.96Q4.10 2.95 4.17 2.95L4.17 2.95L7.11 12.18L7.11 12.18Q7.14 12.28 7.18 12.39L7.18 12.39L7.18 12.39Q7.21 12.50 7.27 12.58L7.27 12.58L7.27 12.58Q7.33 12.67 7.41 12.72L7.41 12.72L7.41 12.72Q7.49 12.78 7.62 12.78ZM3.20 4.30L1.82 8.67L4.46 8.67L3.20 4.30ZM11.94 10.94L11.94 5.61L10.91 5.61L10.91 5.61Q10.48 5.61 10.19 5.69L10.19 5.69L10.19 5.69Q9.89 5.76 9.71 5.94L9.71 5.94L9.71 5.94Q9.53 6.12 9.45 6.41L9.45 6.41L9.45 6.41Q9.37 6.70 9.37 7.12L9.37 7.12L9.37 10.94L9.37 10.94Q9.37 11.33 9.44 11.61L9.44 11.61L9.44 11.61Q9.51 11.89 9.66 12.08L9.66 12.08L9.66 12.08Q9.81 12.27 10.06 12.36L10.06 12.36L10.06 12.36Q10.30 12.46 10.66 12.46L10.66 12.46L10.66 12.46Q11.36 12.46 11.65 12.09L11.65 12.09L11.65 12.09Q11.94 11.72 11.94 10.94L11.94 10.94ZM11.94 12.80L9.37 12.80L9.37 12.80Q9.07 12.80 8.80 12.70L8.80 12.70L8.80 12.70Q8.52 12.59 8.31 12.41L8.31 12.41L8.31 12.41Q8.10 12.22 7.97 11.97L7.97 11.97L7.97 11.97Q7.85 11.71 7.85 11.41L7.85 11.41L7.85 6.79L7.85 6.79Q7.85 6.48 7.97 6.20L7.97 6.20L7.97 6.20Q8.09 5.92 8.30 5.71L8.30 5.71L8.30 5.71Q8.50 5.51 8.78 5.39L8.78 5.39L8.78 5.39Q9.06 5.27 9.37 5.27L9.37 5.27L11.94 5.27L11.94 4.58L11.94 4.58Q11.94 4.12 12.02 3.81L12.02 3.81L12.02 3.81Q12.10 3.49 12.28 3.30L12.28 3.30L12.28 3.30Q12.46 3.11 12.76 3.03L12.76 3.03L12.76 3.03Q13.06 2.95 13.49 2.95L13.49 2.95L13.49 11.41L13.49 11.41Q13.49 11.79 13.38 12.05L13.38 12.05L13.38 12.05Q13.28 12.31 13.08 12.48L13.08 12.48L13.08 12.48Q12.89 12.64 12.60 12.72L12.60 12.72L12.60 12.72Q12.30 12.80 11.94 12.80L11.94 12.80ZM16.88 5.27L19.17 5.27L19.17 5.27Q19.50 5.27 19.80 5.37L19.80 5.37L19.80 5.37Q20.10 5.48 20.33 5.67L20.33 5.67L20.33 5.67Q20.56 5.87 20.70 6.15L20.70 6.15L20.70 6.15Q20.84 6.44 20.84 6.81L20.84 6.81L20.84 11.27L20.84 11.27Q20.84 11.64 20.70 11.93L20.70 11.93L20.70 11.93Q20.56 12.21 20.33 12.40L20.33 12.40L20.33 12.40Q20.10 12.60 19.80 12.70L19.80 12.70L19.80 12.70Q19.50 12.80 19.17 12.80L19.17 12.80L16.88 12.80L16.88 12.80Q16.56 12.80 16.26 12.70L16.26 12.70L16.26 12.70Q15.96 12.60 15.73 12.40L15.73 12.40L15.73 12.40Q15.50 12.21 15.36 11.93L15.36 11.93L15.36 11.93Q15.22 11.64 15.22 11.27L15.22 11.27L15.22 6.81L15.22 6.81Q15.22 6.44 15.36 6.15L15.36 6.15L15.36 6.15Q15.50 5.87 15.73 5.67L15.73 5.67L15.73 5.67Q15.96 5.48 16.26 5.37L16.26 5.37L16.26 5.37Q16.56 5.27 16.88 5.27L16.88 5.27ZM16.73 7.13L16.73 10.94L16.73 10.94Q16.73 11.33 16.80 11.62L16.80 11.62L16.80 11.62Q16.87 11.91 17.02 12.09L17.02 12.09L17.02 12.09Q17.18 12.28 17.42 12.37L17.42 12.37L17.42 12.37Q17.67 12.46 18.03 12.46L18.03 12.46L18.03 12.46Q18.38 12.46 18.63 12.37L18.63 12.37L18.63 12.37Q18.88 12.28 19.03 12.09L19.03 12.09L19.03 12.09Q19.19 11.91 19.26 11.62L19.26 11.62L19.26 11.62Q19.33 11.33 19.33 10.94L19.33 10.94L19.33 7.13L19.33 7.13Q19.33 6.74 19.26 6.45L19.26 6.45L19.26 6.45Q19.19 6.17 19.03 5.98L19.03 5.98L19.03 5.98Q18.88 5.80 18.63 5.71L18.63 5.71L18.63 5.71Q18.38 5.62 18.03 5.62L18.03 5.62L18.03 5.62Q17.67 5.62 17.42 5.71L17.42 5.71L17.42 5.71Q17.18 5.80 17.02 5.98L17.02 5.98L17.02 5.98Q16.87 6.17 16.80 6.45L16.80 6.45L16.80 6.45Q16.73 6.74 16.73 7.13L16.73 7.13ZM22.57 15.15L22.57 5.27L26.67 5.27L26.67 5.27Q26.97 5.27 27.25 5.39L27.25 5.39L27.25 5.39Q27.53 5.51 27.74 5.72L27.74 5.72L27.74 5.72Q27.95 5.93 28.06 6.21L28.06 6.21L28.06 6.21Q28.18 6.49 28.18 6.80L28.18 6.80L28.18 11.28L28.18 11.28Q28.18 11.60 28.06 11.88L28.06 11.88L28.06 11.88Q27.95 12.16 27.74 12.37L27.74 12.37L27.74 12.37Q27.53 12.57 27.25 12.69L27.25 12.69L27.25 12.69Q26.97 12.81 26.67 12.81L26.67 12.81L24.11 12.81L24.11 13.52L24.11 13.52Q24.11 13.98 24.03 14.29L24.03 14.29L24.03 14.29Q23.95 14.60 23.77 14.79L23.77 14.79L23.77 14.79Q23.58 14.98 23.29 15.07L23.29 15.07L23.29 15.07Q23.00 15.15 22.57 15.15L22.57 15.15ZM24.11 5.62L24.11 12.47L25.12 12.47L25.12 12.47Q25.55 12.47 25.85 12.39L25.85 12.39L25.85 12.39Q26.14 12.31 26.33 12.13L26.33 12.13L26.33 12.13Q26.51 11.96 26.59 11.67L26.59 11.67L26.59 11.67Q26.67 11.38 26.67 10.95L26.67 10.95L26.67 7.14L26.67 7.14Q26.67 6.36 26.38 5.99L26.38 5.99L26.38 5.99Q26.09 5.62 25.40 5.62L25.40 5.62L24.11 5.62ZM31.59 5.61L31.59 10.96L31.59 10.96Q31.59 11.12 31.59 11.32L31.59 11.32L31.59 11.32Q31.58 11.52 31.60 11.72L31.60 11.72L31.60 11.72Q31.61 11.92 31.65 12.11L31.65 12.11L31.65 12.11Q31.69 12.30 31.78 12.44L31.78 12.44L31.78 12.44Q31.88 12.59 32.03 12.68L32.03 12.68L32.03 12.68Q32.18 12.77 32.40 12.77L32.40 12.77L32.40 12.77Q32.43 12.77 32.43 12.79L32.43 12.79L32.43 12.79Q32.43 12.80 32.40 12.80L32.40 12.80L31.59 12.80L31.59 12.80Q31.06 12.80 30.75 12.67L30.75 12.67L30.75 12.67Q30.44 12.54 30.28 12.30L30.28 12.30L30.28 12.30Q30.13 12.07 30.08 11.72L30.08 11.72L30.08 11.72Q30.04 11.38 30.04 10.96L30.04 10.96L30.04 5.61L29.23 5.61L29.23 5.27L30.04 5.27L30.04 4.59L30.04 4.59Q30.04 4.13 30.12 3.81L30.12 3.81L30.12 3.81Q30.20 3.50 30.39 3.31L30.39 3.31L30.39 3.31Q30.57 3.12 30.86 3.04L30.86 3.04L30.86 3.04Q31.16 2.95 31.59 2.95L31.59 2.95L31.59 5.27L33.07 5.27L33.07 5.61L31.59 5.61ZM45.92 2.95L45.92 2.95L45.92 11.20L45.92 11.20Q45.92 11.65 45.85 11.95L45.85 11.95L45.85 11.95Q45.78 12.26 45.60 12.45L45.60 12.45L45.60 12.45Q45.42 12.64 45.13 12.72L45.13 12.72L45.13 12.72Q44.83 12.80 44.37 12.80L44.37 12.80L44.37 3.64L41.59 12.80L40.93 12.80L38.17 3.54L38.17 11.99L38.17 11.99Q38.17 12.22 38.16 12.38L38.16 12.38L38.16 12.38Q38.15 12.53 38.11 12.63L38.11 12.63L38.11 12.63Q38.08 12.72 38.00 12.76L38.00 12.76L38.00 12.76Q37.93 12.80 37.79 12.80L37.79 12.80L37.79 4.20L37.79 4.20Q37.79 3.77 37.88 3.52L37.88 3.52L37.88 3.52Q37.98 3.27 38.19 3.15L38.19 3.15L38.19 3.15Q38.40 3.02 38.72 2.99L38.72 2.99L38.72 2.99Q39.05 2.95 39.50 2.95L39.50 2.95L41.81 10.88L43.80 4.20L43.80 4.20Q43.95 3.73 44.11 3.47L44.11 3.47L44.11 3.47Q44.27 3.21 44.51 3.10L44.51 3.10L44.51 3.10Q44.75 2.99 45.09 2.97L45.09 2.97L45.09 2.97Q45.42 2.95 45.92 2.95ZM50.46 5.63L50.46 5.63L50.46 5.63Q49.75 5.63 49.46 5.98L49.46 5.98L49.46 5.98Q49.16 6.34 49.16 7.12L49.16 7.12L49.16 7.77L51.76 7.77L51.76 7.12L51.76 7.12Q51.76 6.73 51.69 6.45L51.69 6.45L51.69 6.45Q51.63 6.17 51.47 5.98L51.47 5.98L51.47 5.98Q51.32 5.80 51.07 5.71L51.07 5.71L51.07 5.71Q50.83 5.63 50.46 5.63ZM53.28 8.11L49.16 8.11L49.16 10.95L49.16 10.95Q49.16 11.38 49.25 11.67L49.25 11.67L49.25 11.67Q49.33 11.96 49.51 12.14L49.51 12.14L49.51 12.14Q49.69 12.32 49.99 12.40L49.99 12.40L49.99 12.40Q50.29 12.48 50.72 12.48L50.72 12.48L50.79 12.48L50.79 12.48Q51.22 12.48 51.52 12.40L51.52 12.40L51.52 12.40Q51.81 12.32 51.99 12.14L51.99 12.14L51.99 12.14Q52.18 11.96 52.26 11.67L52.26 11.67L52.26 11.67Q52.34 11.38 52.34 10.95L52.34 10.95L52.34 10.30L52.73 10.30L52.73 11.29L52.73 11.29Q52.73 11.51 52.68 11.78L52.68 11.78L52.68 11.78Q52.63 12.04 52.47 12.27L52.47 12.27L52.47 12.27Q52.32 12.50 52.01 12.65L52.01 12.65L52.01 12.65Q51.71 12.80 51.21 12.80L51.21 12.80L49.16 12.80L49.16 12.80Q48.89 12.80 48.62 12.67L48.62 12.67L48.62 12.67Q48.35 12.54 48.14 12.33L48.14 12.33L48.14 12.33Q47.92 12.11 47.79 11.84L47.79 11.84L47.79 11.84Q47.65 11.57 47.65 11.29L47.65 11.29L47.65 6.79L47.65 6.79Q47.65 6.49 47.78 6.22L47.78 6.22L47.78 6.22Q47.90 5.95 48.11 5.75L48.11 5.75L48.11 5.75Q48.32 5.54 48.59 5.42L48.59 5.42L48.59 5.42Q48.86 5.29 49.16 5.27L49.16 5.27L51.76 5.27L51.76 5.27Q52.08 5.27 52.35 5.39L52.35 5.39L52.35 5.39Q52.63 5.51 52.83 5.72L52.83 5.72L52.83 5.72Q53.04 5.93 53.16 6.20L53.16 6.20L53.16 6.20Q53.28 6.48 53.28 6.79L53.28 6.79L53.28 8.11Z"></path></g><!----><g data-v-423bf9ae="" id="f6108b63-f32d-4997-a395-e9d173975b6e" transform="matrix(1.0035577379524376,0,0,1.0035577379524376,-7.349352131752191,-4.015091529485112)" stroke="none" fill="#FFFFFF"><path clip-rule="evenodd" d="M92.332 28.72c-.12-1.455-.761-2.191-2.01-2.302-.756-.838-1.422-.83-2.569.028-.631-.083-1.262.146-1.615.549-1.411 1.611-3.319 2.645-4.757 4.211-.385.419-.673.963-1.125 1.274-1.558 1.075-2.713 2.525-3.864 3.979-.436.549-.7.597-1.219.061-.687-.712-1.246-1.591-2.213-2l-.055.012c.128-.119.12-.228-.022-.327-.191-.294-.466-.202-.729-.158-.015-.734-.719-.712-1.128-.987-.477-.321-1.188-.404-1.517-.815-2.867-3.596-3.904-7.588-2.948-12.199.646-3.106 3.301-4.95 4.332-7.799.269-.742.403-1.51.072-1.816-.688-.637-.68-2.143-2.135-1.88l-1.727-.552c-.014-.723-.639-.944-1.107-1.003-1.196-.146-1.81-.718-1.967-1.907-.043-.321-.164-.856-.605-.847-.408.009-.52.515-.651.844-.353.876-.68 1.677-1.756 1.978-.846.236-1.604.769-2.426 1.112-.587.246-1.146.01-1.646-.312-1.756-1.133-3.412-2.418-5.769-1.935-.743.153-.899.353-.849.979.167 2.087 1.036 3.914 2.097 5.667.094.155.41.23.348.455-.343 1.239.368 2.217.766 3.275 1.302 3.463 1.171 6.932-1.098 9.82-1.549 1.972-2.13 4.087-2.366 6.356-.384 3.709-2.208 6.729-4.478 9.426-2.066 2.453-4.537 4.568-6.677 6.984a13.425 13.425 0 0 1-2.233 1.995c-1.345.966-2.681 2.066-3.558 3.47-.945 1.515-2.481 2.527-3.257 4.148-.253.53-.677.435-.85.038-.531-1.219-1.517-2.156-2.051-3.352-1.743-3.891-1.811-8.09-2.11-12.233-.077-1.062-.211-2.072-.609-3.051-1.174-2.877-3.188-5.113-5.446-7.166l-.035.021c-.117-.376-.37-.521-.754-.44a9739.338 9739.338 0 0 1-6.125-3.591c-.094-.999-1.703-2.759-2.745-3.003-.289-.604-.53-.421-.755.045-.687.484-.312 1.028-.051 1.521 1.275 2.414 3.283 4.175 5.594 5.44 1.891 1.034 3.714 2.045 5.08 3.738 1.894 2.349 3.323 4.829 3.053 8.05-.235 2.803.197 5.606.591 8.377.521 3.668 2.236 6.829 4.645 9.617.701.812 1.013 1.687 1.098 2.793.15 1.954.931 3.709 2.634 4.857.87.586 1.831 1.039 2.747 1.56.562.319.841.683.43 1.37-.514.857-.876 1.805-1.38 2.668-.408.7-.433 1.322-.214 2.118.515 1.869 1.261 3.701.885 5.747-.21 1.143-.13 2.306-1.031 3.25-.383.401-.596 1.013-.762 1.564-.408 1.368.629 3.037 2.298 2.482.985-.328 1.271-.123 1.473.874.307 1.513 2.534 2.624 3.71 1.896.842-.521 1.269-1.456 1.336-2.413.143-2.035-.283-3.99-1.175-5.833-.716-1.482-1.195-3.042-1.325-4.678-.112-1.41.387-1.946 1.774-1.977 1.473-.033 2.946.035 4.419.031 2.969-.01 5.105-1.525 5.907-4.38.466-1.66.678-3.391.999-5.089.317-1.681.746-3.264 2.166-4.453 1.598-1.339 2.636-3.221 4.148-4.641 1.797-1.688 3.104-3.784 4.829-5.518 1.286-1.294 2.283-3.024 4.418-3.157.498-.03.988-.166 1.485-.226 1.287-.155 2.477-1.084 3.658-1.022 2.07.105 4.394-.595 6.166 1.2.133.135.36.216.556.244 1.32.188 2.51.143 3.668-.82 1.136-.944 1.367-1.432.35-2.547-.38-.418-1.098-.674-1.241-1.135-.369-1.189-.733-.218-1.103-.095l-.436-.312a.67.67 0 0 0-.062-.181 41.764 41.764 0 0 0-.313-.281c-1.09-.629-2.176-1.281-3.515-.76-.586.009-1.172.017-1.758.023-.911-.505-1.894-.103-2.833-.226-.272-.036-.747.254-.773-.238-.027-.521.481-.465.834-.469.755-.008 1.511.013 2.266.033 1.467.04 2.765-.329 3.92-1.31 1.11-.939 1.834-2.158 2.72-3.265 2.26-2.824 4.324-5.826 6.979-8.295.447-.417.884-1.352 1.865-1.134.562.124 1.093-.111 1.642-.218 1.064-.2 1.666-.685 1.57-1.832z"></path></g><!----></svg>