<svg data-v-423bf9ae="" xmlns="http://www.w3.org/2000/svg" viewBox="0 0 344 90" class="iconLeft"><!----><!----><!----><g data-v-423bf9ae="" id="7de4db4a-a7d3-47e5-bfa5-9fda08076bc2" fill="#FFFFFF" transform="matrix(4.528301886792453,0,0,4.528301886792453,104.37008308577089,1.007547320060013)"><path d="M3.99 4.68L5.35 9.32L2.67 9.32L3.99 4.68ZM8.64 13.17L8.64 12.64L7.59 12.64L4.77 3.19L3.89 3.19L1.15 12.35L1.15 12.35Q0.99 12.52 0.77 12.58L0.77 12.58L0.77 12.58Q0.55 12.64 0.06 12.64L0.06 12.64L0.06 13.17L2.94 13.17L2.94 12.64L2.94 12.64Q2.34 12.64 2.10 12.59L2.10 12.59L2.10 12.59Q1.86 12.54 1.81 12.31L1.81 12.31L2.53 9.84L5.49 9.84L6.30 12.64L5.14 12.64L5.14 13.17L8.64 13.17ZM13.01 12.64L13.01 12.64L13.01 13.17L14.97 13.17L14.97 12.66L14.07 12.66L14.07 3.09L14.07 3.09Q13.92 3.19 13.73 3.23L13.73 3.23L13.73 3.23Q13.55 3.28 13.27 3.28L13.27 3.28L12.04 3.28L12.04 3.78L13.01 3.78L13.01 7.71L13.01 7.71Q12.59 7.32 12.01 7.15L12.01 7.15L12.01 7.15Q11.44 6.97 10.81 6.97L10.81 6.97L10.81 6.97Q10.39 6.97 10.03 7.13L10.03 7.13L10.03 7.13Q9.67 7.29 9.41 7.59L9.41 7.59L9.41 7.59Q9.16 7.88 9.02 8.29L9.02 8.29L9.02 8.29Q8.88 8.69 8.88 9.17L8.88 9.17L8.88 11.12L8.88 11.12Q8.88 12.12 9.39 12.69L9.39 12.69L9.39 12.69Q9.90 13.26 10.82 13.26L10.82 13.26L10.82 13.26Q12.15 13.26 13.01 12.64ZM13.01 8.62L13.01 11.79L13.01 11.79Q12.95 12.19 12.40 12.47L12.40 12.47L12.40 12.47Q11.84 12.75 11.00 12.75L11.00 12.75L11.00 12.75Q10.39 12.75 10.19 12.40L10.19 12.40L10.19 12.40Q10.00 12.05 10.00 11.23L10.00 11.23L10.00 9.03L10.00 9.03Q10.00 8.23 10.19 7.85L10.19 7.85L10.19 7.85Q10.39 7.48 10.96 7.48L10.96 7.48L10.96 7.48Q11.82 7.48 12.34 7.80L12.34 7.80L12.34 7.80Q12.87 8.12 13.01 8.62L13.01 8.62ZM21.06 11.07L21.06 11.07L21.06 9.16L21.06 9.16Q21.06 8.15 20.52 7.56L20.52 7.56L20.52 7.56Q19.98 6.97 19.01 6.97L19.01 6.97L17.75 6.97L17.75 6.97Q16.83 6.97 16.27 7.56L16.27 7.56L16.27 7.56Q15.72 8.15 15.72 9.16L15.72 9.16L15.72 11.07L15.72 11.07Q15.72 12.08 16.27 12.67L16.27 12.67L16.27 12.67Q16.81 13.26 17.75 13.26L17.75 13.26L19.01 13.26L19.01 13.26Q19.95 13.26 20.50 12.67L20.50 12.67L20.50 12.67Q21.06 12.08 21.06 11.07ZM19.92 8.79L19.92 11.44L19.92 11.44Q19.92 12.15 19.68 12.45L19.68 12.45L19.68 12.45Q19.43 12.75 18.76 12.75L18.76 12.75L18.00 12.75L18.00 12.75Q17.36 12.75 17.11 12.45L17.11 12.45L17.11 12.45Q16.86 12.15 16.86 11.44L16.86 11.44L16.86 8.79L16.86 8.79Q16.86 8.08 17.11 7.78L17.11 7.78L17.11 7.78Q17.36 7.48 18.00 7.48L18.00 7.48L18.76 7.48L18.76 7.48Q19.43 7.48 19.68 7.78L19.68 7.78L19.68 7.78Q19.92 8.08 19.92 8.79L19.92 8.79ZM23.76 15.83L23.76 12.67L23.76 12.67Q24.21 12.99 24.73 13.13L24.73 13.13L24.73 13.13Q25.26 13.26 25.89 13.26L25.89 13.26L25.89 13.26Q26.81 13.26 27.36 12.68L27.36 12.68L27.36 12.68Q27.90 12.11 27.90 11.14L27.90 11.14L27.90 9.09L27.90 9.09Q27.90 8.62 27.76 8.24L27.76 8.24L27.76 8.24Q27.62 7.85 27.36 7.57L27.36 7.57L27.36 7.57Q27.10 7.28 26.75 7.13L26.75 7.13L26.75 7.13Q26.39 6.97 25.97 6.97L25.97 6.97L25.97 6.97Q25.38 6.97 24.82 7.11L24.82 7.11L24.82 7.11Q24.25 7.25 23.76 7.69L23.76 7.69L23.76 6.94L23.76 6.94Q23.60 7.04 23.42 7.08L23.42 7.08L23.42 7.08Q23.24 7.13 22.96 7.13L22.96 7.13L21.80 7.13L21.80 7.63L22.69 7.63L22.69 15.82L21.80 15.82L21.80 16.34L24.70 16.34L24.70 15.82L23.76 15.83ZM23.76 11.84L23.76 11.84L23.76 8.60L23.76 8.60Q23.95 8.18 24.44 7.83L24.44 7.83L24.44 7.83Q24.92 7.48 25.75 7.48L25.75 7.48L25.75 7.48Q26.35 7.48 26.57 7.82L26.57 7.82L26.57 7.82Q26.78 8.16 26.78 8.92L26.78 8.92L26.78 11.31L26.78 11.31Q26.78 12.08 26.57 12.42L26.57 12.42L26.57 12.42Q26.35 12.75 25.72 12.75L25.72 12.75L25.72 12.75Q24.92 12.75 24.42 12.48L24.42 12.48L24.42 12.48Q23.91 12.21 23.76 11.84ZM30.91 12.14L30.91 12.14L30.91 7.63L32.34 7.63L32.34 7.13L30.91 7.13L30.91 5.08L30.37 5.08L30.37 5.08Q30.30 5.84 30.06 6.35L30.06 6.35L30.06 6.35Q29.83 6.86 29.33 7.13L29.33 7.13L28.85 7.13L28.85 7.63L29.86 7.63L29.86 12.15L29.86 12.15Q29.86 13.26 31.18 13.26L31.18 13.26L31.18 13.26Q31.77 13.26 32.04 13.09L32.04 13.09L32.04 13.09Q32.31 12.92 32.45 12.73L32.45 12.73L32.45 12.43L32.35 12.31L32.35 12.31Q32.33 12.43 32.09 12.59L32.09 12.59L32.09 12.59Q31.86 12.75 31.54 12.75L31.54 12.75L31.54 12.75Q31.19 12.75 31.05 12.62L31.05 12.62L31.05 12.62Q30.91 12.49 30.91 12.14ZM47.00 3.30L44.52 3.30L41.85 10.07L39.12 3.30L36.61 3.30L36.61 3.84L37.72 3.82L37.72 12.08L37.72 12.08Q37.72 12.64 37.45 12.64L37.45 12.64L36.62 12.64L36.62 13.17L39.54 13.17L39.54 12.64L38.60 12.64L38.60 12.64Q38.29 12.64 38.29 12.08L38.29 12.08L38.29 4.40L41.30 11.83L41.73 11.83L44.70 4.28L44.69 12.64L43.54 12.64L43.54 13.17L47.00 13.17L47.00 12.64L45.86 12.66L45.86 3.84L47.00 3.84L47.00 3.30ZM52.70 11.65L52.70 11.33L52.15 11.33L52.15 11.56L52.15 11.56Q51.95 12.75 50.81 12.75L50.81 12.75L49.91 12.75L49.91 12.75Q48.96 12.75 48.96 11.76L48.96 11.76L48.96 10.02L52.50 10.02L52.50 10.02Q52.58 10.02 52.61 9.65L52.61 9.65L52.61 9.65Q52.63 9.45 52.64 9.23L52.64 9.23L52.64 9.23Q52.65 9.00 52.64 8.72L52.64 8.72L52.64 8.72Q52.63 8.34 52.47 8.03L52.47 8.03L52.47 8.03Q52.32 7.71 52.06 7.48L52.06 7.48L52.06 7.48Q51.80 7.24 51.44 7.10L51.44 7.10L51.44 7.10Q51.09 6.97 50.67 6.97L50.67 6.97L49.66 6.97L49.66 6.97Q49.27 6.97 48.93 7.14L48.93 7.14L48.93 7.14Q48.59 7.31 48.36 7.60L48.36 7.60L48.36 7.60Q48.12 7.90 47.98 8.30L47.98 8.30L47.98 8.30Q47.84 8.71 47.84 9.17L47.84 9.17L47.84 11.14L47.84 11.14Q47.84 12.12 48.34 12.69L48.34 12.69L48.34 12.69Q48.83 13.26 49.73 13.26L49.73 13.26L50.90 13.26L50.90 13.26Q51.24 13.26 51.53 13.18L51.53 13.18L51.53 13.18Q51.83 13.10 52.07 12.92L52.07 12.92L52.07 12.92Q52.30 12.74 52.46 12.42L52.46 12.42L52.46 12.42Q52.63 12.11 52.70 11.65L52.70 11.65ZM51.49 9.52L48.96 9.52L48.96 8.55L48.96 8.55Q48.96 7.48 49.88 7.48L49.88 7.48L50.61 7.48L50.61 7.48Q51.09 7.48 51.31 7.71L51.31 7.71L51.31 7.71Q51.53 7.95 51.52 8.50L51.52 8.50L51.49 9.52Z"></path></g><!----><g data-v-423bf9ae="" id="b4d4fc6b-9250-4451-85f7-215c7f3e7946" transform="matrix(1.0035577379524376,0,0,1.0035577379524376,-7.349352131752191,-4.015091529485112)" stroke="none" fill="#FFFFFF"><path clip-rule="evenodd" d="M92.332 28.72c-.12-1.455-.761-2.191-2.01-2.302-.756-.838-1.422-.83-2.569.028-.631-.083-1.262.146-1.615.549-1.411 1.611-3.319 2.645-4.757 4.211-.385.419-.673.963-1.125 1.274-1.558 1.075-2.713 2.525-3.864 3.979-.436.549-.7.597-1.219.061-.687-.712-1.246-1.591-2.213-2l-.055.012c.128-.119.12-.228-.022-.327-.191-.294-.466-.202-.729-.158-.015-.734-.719-.712-1.128-.987-.477-.321-1.188-.404-1.517-.815-2.867-3.596-3.904-7.588-2.948-12.199.646-3.106 3.301-4.95 4.332-7.799.269-.742.403-1.51.072-1.816-.688-.637-.68-2.143-2.135-1.88l-1.727-.552c-.014-.723-.639-.944-1.107-1.003-1.196-.146-1.81-.718-1.967-1.907-.043-.321-.164-.856-.605-.847-.408.009-.52.515-.651.844-.353.876-.68 1.677-1.756 1.978-.846.236-1.604.769-2.426 1.112-.587.246-1.146.01-1.646-.312-1.756-1.133-3.412-2.418-5.769-1.935-.743.153-.899.353-.849.979.167 2.087 1.036 3.914 2.097 5.667.094.155.41.23.348.455-.343 1.239.368 2.217.766 3.275 1.302 3.463 1.171 6.932-1.098 9.82-1.549 1.972-2.13 4.087-2.366 6.356-.384 3.709-2.208 6.729-4.478 9.426-2.066 2.453-4.537 4.568-6.677 6.984a13.425 13.425 0 0 1-2.233 1.995c-1.345.966-2.681 2.066-3.558 3.47-.945 1.515-2.481 2.527-3.257 4.148-.253.53-.677.435-.85.038-.531-1.219-1.517-2.156-2.051-3.352-1.743-3.891-1.811-8.09-2.11-12.233-.077-1.062-.211-2.072-.609-3.051-1.174-2.877-3.188-5.113-5.446-7.166l-.035.021c-.117-.376-.37-.521-.754-.44a9739.338 9739.338 0 0 1-6.125-3.591c-.094-.999-1.703-2.759-2.745-3.003-.289-.604-.53-.421-.755.045-.687.484-.312 1.028-.051 1.521 1.275 2.414 3.283 4.175 5.594 5.44 1.891 1.034 3.714 2.045 5.08 3.738 1.894 2.349 3.323 4.829 3.053 8.05-.235 2.803.197 5.606.591 8.377.521 3.668 2.236 6.829 4.645 9.617.701.812 1.013 1.687 1.098 2.793.15 1.954.931 3.709 2.634 4.857.87.586 1.831 1.039 2.747 1.56.562.319.841.683.43 1.37-.514.857-.876 1.805-1.38 2.668-.408.7-.433 1.322-.214 2.118.515 1.869 1.261 3.701.885 5.747-.21 1.143-.13 2.306-1.031 3.25-.383.401-.596 1.013-.762 1.564-.408 1.368.629 3.037 2.298 2.482.985-.328 1.271-.123 1.473.874.307 1.513 2.534 2.624 3.71 1.896.842-.521 1.269-1.456 1.336-2.413.143-2.035-.283-3.99-1.175-5.833-.716-1.482-1.195-3.042-1.325-4.678-.112-1.41.387-1.946 1.774-1.977 1.473-.033 2.946.035 4.419.031 2.969-.01 5.105-1.525 5.907-4.38.466-1.66.678-3.391.999-5.089.317-1.681.746-3.264 2.166-4.453 1.598-1.339 2.636-3.221 4.148-4.641 1.797-1.688 3.104-3.784 4.829-5.518 1.286-1.294 2.283-3.024 4.418-3.157.498-.03.988-.166 1.485-.226 1.287-.155 2.477-1.084 3.658-1.022 2.07.105 4.394-.595 6.166 1.2.133.135.36.216.556.244 1.32.188 2.51.143 3.668-.82 1.136-.944 1.367-1.432.35-2.547-.38-.418-1.098-.674-1.241-1.135-.369-1.189-.733-.218-1.103-.095l-.436-.312a.67.67 0 0 0-.062-.181 41.764 41.764 0 0 0-.313-.281c-1.09-.629-2.176-1.281-3.515-.76-.586.009-1.172.017-1.758.023-.911-.505-1.894-.103-2.833-.226-.272-.036-.747.254-.773-.238-.027-.521.481-.465.834-.469.755-.008 1.511.013 2.266.033 1.467.04 2.765-.329 3.92-1.31 1.11-.939 1.834-2.158 2.72-3.265 2.26-2.824 4.324-5.826 6.979-8.295.447-.417.884-1.352 1.865-1.134.562.124 1.093-.111 1.642-.218 1.064-.2 1.666-.685 1.57-1.832z"></path></g><!----></svg>