<?xml version="1.0"?>
<svg xmlns="http://www.w3.org/2000/svg" id="Layer_1" height="512px" viewBox="0 0 512 512" width="512px" data-name="Layer 1" class=""><g><path d="m256 17.68c112.43 0 203.93 87.31 203.93 194.96 0 151.31-203.93 281.68-203.93 281.68s-203.93-130.37-203.93-281.68c0-107.65 91.5-194.96 203.93-194.96z" fill="#f4b844" data-original="#F4B844" class="" style="fill:#C12020" data-old_color="#f4b844"/><path d="m256 69.12a148.9 148.9 0 1 1 -148.89 148.89 148.89 148.89 0 0 1 148.89-148.89z" fill="#00acea" data-original="#00ACEA" class="active-path" style="fill:#FFEEB6" data-old_color="#00acea"/><g fill="#00efd1"><path d="m327.74 155.69c9.11 0 16.5 9.16 16.5 20.45s-7.39 20.44-16.5 20.44-16.5-9.15-16.5-20.44 7.39-20.45 16.5-20.45z" data-original="#00EFD1" class="" style="fill:#000000" data-old_color="#00EFD1"/><path d="m256 177.21c32.69 0 59.18 30.36 59.18 67.8s-26.49 67.79-59.18 67.79-59.18-30.35-59.18-67.79 26.49-67.8 59.18-67.8z" data-original="#00EFD1" class="" style="fill:#000000" data-old_color="#00EFD1"/><ellipse cx="283.44" cy="142.66" rx="18.93" ry="23.46" data-original="#00EFD1" class="" style="fill:#000000" data-old_color="#00EFD1"/><ellipse cx="228.56" cy="142.66" rx="18.93" ry="23.46" data-original="#00EFD1" class="" style="fill:#000000" data-old_color="#00EFD1"/><path d="m184.26 155.69c9.11 0 16.5 9.16 16.5 20.45s-7.39 20.44-16.5 20.44-16.5-9.15-16.5-20.44 7.39-20.45 16.5-20.45z" data-original="#00EFD1" class="" style="fill:#000000" data-old_color="#00EFD1"/></g></g> </svg>
