<svg height="512pt" viewBox="-80 0 512 512" width="512pt" xmlns="http://www.w3.org/2000/svg"><path d="m277.589844 400.570312c-27.46875-9.652343-63.667969-14.96875-101.921875-14.96875-38.257813 0-74.453125 5.316407-101.925781 14.972657-41.5 14.585937-50.210938 34.277343-50.210938 48.226562 0 13.953125 8.710938 33.640625 50.210938 48.226563 27.472656 9.65625 63.667968 14.972656 101.925781 14.972656 38.253906 0 74.453125-5.316406 101.921875-14.972656 41.5-14.585938 50.210937-34.277344 50.210937-48.226563 0-13.953125-8.710937-33.640625-50.210937-48.230469zm0 0" fill="#9adb05"/><path d="m277.589844 497.027344c41.5-14.585938 50.210937-34.277344 50.210937-48.226563 0-13.953125-8.710937-33.644531-50.210937-48.230469-27.46875-9.652343-63.667969-14.96875-101.921875-14.96875v126.398438c38.253906 0 74.453125-5.316406 101.921875-14.972656zm0 0" fill="#83b904"/><path d="m175.667969 447.734375c-3.421875 0-6.84375-1.167969-9.628907-3.5-1.683593-1.410156-41.710937-35.09375-82.300781-84.554687-55.5625-67.710938-83.738281-129.621094-83.738281-184.011719 0-96.863281 78.804688-175.667969 175.667969-175.667969s175.667969 78.804688 175.667969 175.667969c0 54.390625-28.175782 116.300781-83.738282 184.011719-40.589844 49.460937-80.617187 83.144531-82.300781 84.554687-2.785156 2.332031-6.207031 3.5-9.628906 3.5zm-9.628907-26.503906" fill="#ff4a4a"/><path d="m185.296875 444.234375c1.683594-1.410156 41.707031-35.09375 82.296875-84.554687 55.566406-67.710938 83.738281-129.621094 83.738281-184.015626.003907-96.859374-78.800781-175.664062-175.664062-175.664062v447.734375c3.421875 0 6.84375-1.167969 9.628906-3.5zm0 0" fill="#c7001c"/><g fill-rule="evenodd"><path d="m143.535156 96.398438c8.277344 0 15 6.722656 15 15 0 8.273437-6.722656 15-15 15-8.28125 0-15-6.726563-15-15 0-8.277344 6.71875-15 15-15zm0 0" fill="#fff"/><path d="m95.335938 136.566406c8.277343 0 15 6.71875 15 15 0 8.273438-6.722657 15-15 15-8.28125 0-15-6.726562-15-15 0-8.28125 6.71875-15 15-15zm0 0" fill="#fff"/><path d="m256 136.566406c8.28125 0 15 6.71875 15 15 0 8.273438-6.71875 15-15 15s-15-6.726562-15-15c0-8.28125 6.71875-15 15-15zm0 0" fill="#f3eee9"/><path d="m207.800781 96.398438c8.277344 0 15 6.722656 15 15 0 8.273437-6.722656 15-15 15-8.28125 0-15-6.726563-15-15 0-8.277344 6.71875-15 15-15zm0 0" fill="#f3eee9"/></g><path d="m191.734375 254.933594h-32.132813c-26.449218 0-47.132812-21.550782-47.132812-47.132813 0-34.851562 28.351562-63.199219 63.199219-63.199219 34.847656 0 63.199219 28.347657 63.199219 63.199219 0 25.597657-20.699219 47.132813-47.132813 47.132813zm0 0" fill="#fff"/><path d="m175.667969 144.597656v110.339844h16.070312c26.429688 0 47.128907-21.539062 47.128907-47.140625 0-34.851563-28.351563-63.199219-63.199219-63.199219zm0 0" fill="#f3eee9"/></svg>